<svg width="168" height="45" viewBox="0 0 168 45" fill="none" xmlns="http://www.w3.org/2000/svg">
<path d="M63.3777 36.6559C63.3777 36.9656 63.3073 37.2824 63.1665 37.6062C63.0398 37.93 62.9342 38.2327 62.8497 38.5143C62.6667 38.5565 62.5118 38.6058 62.3851 38.6621C62.2725 38.7043 62.1599 38.7466 62.0472 38.7888C61.9346 38.8311 61.8079 38.8733 61.6671 38.9155C61.5263 38.9437 61.3433 38.9578 61.118 38.9578C60.9913 38.9578 60.9069 38.9718 60.8646 39C60.8224 39.0282 60.7802 39.0634 60.7379 39.1056C60.6957 39.1478 60.6464 39.183 60.5901 39.2112C60.5338 39.2393 60.4352 39.2534 60.2944 39.2534C60.1255 39.2534 59.9495 39.2323 59.7665 39.1901C59.5975 39.1478 59.4145 39.1126 59.2174 39.0845C59.2174 39.0986 59.2104 39.1126 59.1963 39.1267C59.1963 39.1408 59.1963 39.1619 59.1963 39.1901C59.1822 39.2182 59.1752 39.2393 59.1752 39.2534C59.0907 39.2534 58.9921 39.2253 58.8795 39.1689C58.7669 39.1126 58.6472 39.0845 58.5205 39.0845H56.1975C55.7892 39.0845 55.4021 39.1337 55.036 39.2323C54.67 39.3309 54.2898 39.3801 53.8956 39.3801C53.6141 39.3801 53.3395 39.359 53.072 39.3168C52.8045 39.2745 52.53 39.2534 52.2484 39.2534C51.6571 39.2534 51.0799 39.3168 50.5167 39.4435C49.9536 39.5843 49.3763 39.6547 48.785 39.6547C48.25 39.6547 47.708 39.5702 47.1589 39.4012C46.6099 39.2323 46.1312 39 45.7229 38.7043C45.5258 38.1834 45.3287 37.6766 45.1316 37.1838C44.9486 36.677 44.8571 36.142 44.8571 35.5789C44.8571 35.2269 44.9274 34.896 45.0682 34.5863C45.209 34.2766 45.2794 33.9457 45.2794 33.5938C45.2794 33.4248 45.2513 33.2699 45.1949 33.1292C45.1386 32.9743 45.0753 32.8265 45.0049 32.6857C44.9345 32.5449 44.8711 32.4041 44.8148 32.2633C44.7585 32.1225 44.7303 31.9888 44.7303 31.8621C44.7303 31.6509 44.7585 31.4397 44.8148 31.2285C44.8711 31.0033 44.9345 30.785 45.0049 30.5739C45.0753 30.3627 45.1386 30.1515 45.1949 29.9403C45.2513 29.715 45.2794 29.4898 45.2794 29.2645C45.2794 28.6873 45.209 28.1171 45.0682 27.554C44.9274 26.9767 44.8571 26.3925 44.8571 25.8011C44.8571 25.1958 44.8852 24.5904 44.9415 23.985C44.9978 23.3796 45.026 22.7601 45.026 22.1266L44.9838 18.7688C44.9838 18.5295 44.9626 18.3042 44.9204 18.093C44.8782 17.8818 44.8571 17.6566 44.8571 17.4172C44.8571 17.1357 44.9063 16.8541 45.0049 16.5725C45.1034 16.2909 45.1527 16.0094 45.1527 15.7278C45.1527 15.5307 45.1246 15.3406 45.0682 15.1576C45.0119 14.9605 44.9838 14.7634 44.9838 14.5663C44.9838 14.3692 45.0119 14.1791 45.0682 13.9961C45.1246 13.799 45.1527 13.6019 45.1527 13.4048C45.1527 13.0528 45.1034 12.7149 45.0049 12.3911C44.9063 12.0532 44.8571 11.7083 44.8571 11.3563C44.8571 11.0607 44.8923 10.758 44.9626 10.4482C45.0471 10.1244 45.1668 9.82878 45.3217 9.56128C45.4906 9.29378 45.6947 9.07556 45.9341 8.90662C46.1734 8.72359 46.462 8.63208 46.7999 8.63208C46.997 8.63208 47.2364 8.64616 47.5179 8.67432C47.8136 8.70247 48.0529 8.76583 48.236 8.86438C48.4049 8.93477 48.5739 9.0826 48.7428 9.30786C48.9258 9.51904 49.0948 9.75838 49.2496 10.0259C49.4045 10.2793 49.5382 10.5398 49.6509 10.8073C49.7635 11.0747 49.8409 11.3 49.8832 11.483C49.9677 11.9195 50.0169 12.37 50.031 12.8346C50.0592 13.2851 50.0732 13.7497 50.0732 14.2284C50.0732 14.693 50.0592 15.1646 50.031 15.6433C50.0169 16.1079 50.0099 16.5584 50.0099 16.9949C50.0099 17.5862 50.038 18.1775 50.0944 18.7688C50.1507 19.3601 50.1788 19.9655 50.1788 20.585C50.1788 21.0214 50.1155 21.4508 49.9888 21.8732C49.8761 22.2955 49.8198 22.7249 49.8198 23.1614C49.8198 23.4852 49.8761 23.7879 49.9888 24.0695C50.1155 24.337 50.1788 24.6115 50.1788 24.8931C50.1788 25.5125 50.1577 26.1179 50.1155 26.7092C50.0732 27.2865 50.0521 27.8778 50.0521 28.4832C50.0521 29.0745 50.0662 29.6517 50.0944 30.2148C50.1225 30.778 50.1366 31.3411 50.1366 31.9043C50.1366 32.1859 50.1296 32.4604 50.1155 32.7279C50.1014 32.9813 50.0803 33.2418 50.0521 33.5093C50.1366 33.7909 50.4111 33.988 50.8757 34.1006C51.3403 34.1991 51.8612 34.2625 52.4385 34.2906C53.0157 34.3047 53.5789 34.2977 54.1279 34.2695C54.677 34.2273 55.0782 34.2062 55.3317 34.2062C55.5288 34.2062 55.7188 34.2343 55.9019 34.2906C56.099 34.347 56.2961 34.3751 56.4932 34.3751C56.8029 34.3751 57.0986 34.3258 57.3801 34.2273C57.6617 34.1287 57.9574 34.0795 58.2671 34.0795C58.4642 34.0795 58.6472 34.1006 58.8162 34.1428C58.9992 34.1851 59.1892 34.2062 59.3864 34.2062C59.865 34.2343 60.2733 34.2766 60.6112 34.3329C60.9491 34.3751 61.2588 34.4596 61.5404 34.5863C61.822 34.713 62.0824 34.889 62.3218 35.1143C62.5752 35.3395 62.8497 35.6422 63.1454 36.0223C63.3003 36.2194 63.3777 36.4306 63.3777 36.6559ZM71.2548 4.26062C71.2548 4.5422 71.1914 4.80969 71.0647 5.06311C70.938 5.31653 70.8535 5.56995 70.8113 5.82336C70.6001 5.93599 70.3678 6.04862 70.1144 6.16125C69.875 6.27389 69.692 6.44987 69.5653 6.68921C69.4949 6.66105 69.4316 6.64697 69.3752 6.64697C69.3189 6.64697 69.2556 6.64697 69.1852 6.64697C68.8754 6.64697 68.5868 6.71033 68.3193 6.83704C68.0518 6.94967 67.7773 7.03414 67.4957 7.09045C67.1719 6.89335 66.8199 6.73848 66.4398 6.62585C66.0738 6.49915 65.7148 6.33724 65.3628 6.14014C65.3346 5.87264 65.2854 5.64034 65.215 5.44324C65.1446 5.24613 65.1094 5.01383 65.1094 4.74634C65.1094 4.54924 65.0249 4.36621 64.856 4.19727C64.687 4.01424 64.5814 3.82418 64.5392 3.62708C64.6518 3.52852 64.7363 3.40885 64.7926 3.26807C64.863 3.12728 64.9193 2.97945 64.9615 2.82458C65.0038 2.66972 65.0319 2.51485 65.046 2.35999C65.0601 2.20512 65.0812 2.06433 65.1094 1.93762C65.2079 1.92354 65.2854 1.88835 65.3417 1.83203C65.4121 1.76164 65.4684 1.6842 65.5106 1.59973C65.5529 1.50118 65.5951 1.40967 65.6373 1.3252C65.6796 1.24072 65.7359 1.17033 65.8063 1.11401C66.0175 1.0577 66.2146 0.987305 66.3976 0.902832C66.5806 0.804281 66.7566 0.712769 66.9255 0.628296C67.1086 0.543823 67.2916 0.473429 67.4746 0.417114C67.6717 0.360799 67.8899 0.332642 68.1293 0.332642C68.3123 0.332642 68.5094 0.381917 68.7206 0.480469C68.9318 0.57902 69.1359 0.705729 69.333 0.860596C69.5301 1.00138 69.7131 1.15625 69.8821 1.3252C70.051 1.49414 70.1777 1.65605 70.2622 1.81091C70.3326 1.89539 70.3608 1.9869 70.3467 2.08545C70.3326 2.184 70.3467 2.27551 70.3889 2.35999C70.4734 2.52893 70.5649 2.6838 70.6635 2.82458C70.762 2.96537 70.8535 3.10616 70.938 3.24695C71.0365 3.37366 71.114 3.52148 71.1703 3.69043C71.2266 3.8453 71.2548 4.03536 71.2548 4.26062ZM71.8038 20.3527C71.8038 20.7891 71.7334 21.2255 71.5927 21.662C71.4519 22.0984 71.3815 22.5419 71.3815 22.9924C71.3815 23.1473 71.4026 23.3022 71.4448 23.457C71.4871 23.5978 71.5082 23.7456 71.5082 23.9005C71.5082 24.2102 71.4659 24.527 71.3815 24.8508C71.297 25.1606 71.2548 25.4773 71.2548 25.8011C71.2548 26.1813 71.3392 26.5473 71.5082 26.8993C71.4237 27.0542 71.3674 27.209 71.3392 27.3639C71.3111 27.5047 71.297 27.6666 71.297 27.8496C71.297 28.455 71.304 29.0674 71.3181 29.6869C71.3322 30.3064 71.3392 30.9329 71.3392 31.5664C71.3392 31.8902 71.3533 32.2211 71.3815 32.559C71.4237 32.8828 71.5082 33.1855 71.6349 33.467C71.5082 33.7486 71.4519 34.0443 71.4659 34.354C71.4941 34.6637 71.5082 34.9735 71.5082 35.2832C71.5082 35.3958 71.4871 35.5085 71.4448 35.6211C71.4026 35.7196 71.3815 35.8393 71.3815 35.9801C71.3815 36.1913 71.3955 36.4025 71.4237 36.6136C71.4519 36.8108 71.4659 37.0149 71.4659 37.2261C71.4659 37.4373 71.4096 37.6344 71.297 37.8174C71.1844 37.9863 71.0365 38.1342 70.8535 38.2609C70.6705 38.3876 70.4734 38.4861 70.2622 38.5565C70.051 38.6269 69.8469 38.6621 69.6498 38.6621C69.509 38.6621 69.2908 38.6058 68.9951 38.4932C68.7135 38.3665 68.4179 38.2186 68.1082 38.0497C67.8125 37.8807 67.538 37.7118 67.2845 37.5428C67.0311 37.3598 66.8692 37.212 66.7988 37.0994C66.7566 37.0431 66.7003 36.9375 66.6299 36.7826C66.5736 36.6277 66.5102 36.4588 66.4398 36.2758C66.3835 36.0927 66.3342 35.9238 66.292 35.7689C66.2498 35.6 66.2286 35.4803 66.2286 35.4099C66.2286 35.3254 66.2498 35.248 66.292 35.1776C66.3342 35.1072 66.3553 35.0227 66.3553 34.9242C66.3553 34.7271 66.3061 34.5441 66.2075 34.3751C66.109 34.2062 66.0597 34.0443 66.0597 33.8894C66.0597 33.7345 66.0878 33.5938 66.1442 33.467C66.2005 33.3263 66.2286 33.1784 66.2286 33.0236C66.2286 32.8969 66.2005 32.7772 66.1442 32.6646C66.0878 32.5519 66.0597 32.4182 66.0597 32.2633C66.0597 31.9958 66.0949 31.7283 66.1653 31.4608C66.2498 31.1792 66.3342 30.8977 66.4187 30.6161C66.5173 30.3345 66.6017 30.0529 66.6721 29.7714C66.7566 29.4757 66.7988 29.1801 66.7988 28.8844C66.7988 28.5606 66.7847 28.2297 66.7566 27.8918C66.7425 27.554 66.7003 27.2231 66.6299 26.8993C66.6017 26.7022 66.5454 26.5192 66.4609 26.3502C66.3905 26.1813 66.3553 25.9842 66.3553 25.7589C66.3553 25.5618 66.3765 25.3717 66.4187 25.1887C66.475 24.9916 66.5032 24.7945 66.5032 24.5974C66.5032 24.2736 66.4117 23.9709 66.2286 23.6893C66.4117 23.4078 66.5313 23.091 66.5876 22.739C66.644 22.373 66.6721 22.028 66.6721 21.7042C66.6721 21.31 66.6299 20.8806 66.5454 20.416C66.4609 19.9514 66.299 19.5572 66.0597 19.2334C66.1723 18.797 66.2075 18.3676 66.1653 17.9452C66.123 17.5087 66.1019 17.0723 66.1019 16.6359C66.1019 16.3543 66.1442 16.0516 66.2286 15.7278C66.1582 15.5307 66.0456 15.3547 65.8907 15.1998C65.75 15.045 65.6796 14.8479 65.6796 14.6085C65.6796 14.5663 65.7007 14.4889 65.7429 14.3762C65.7852 14.2636 65.8344 14.1298 65.8907 13.975C65.9471 13.8201 65.9963 13.6582 66.0386 13.4893C66.0808 13.3203 66.1019 13.1584 66.1019 13.0035C66.1019 12.7501 66.0527 12.5108 65.9541 12.2855C65.8556 12.0603 65.8063 11.828 65.8063 11.5886C65.8063 11.1944 65.8767 10.8424 66.0175 10.5327C66.1582 10.223 66.3201 9.90621 66.5032 9.5824C67.1226 9.27266 67.7703 9.1178 68.446 9.1178C68.6854 9.1178 68.9177 9.13892 69.1429 9.18115C69.3823 9.20931 69.6216 9.25859 69.861 9.32898C69.9173 9.37122 70.0369 9.53312 70.22 9.8147C70.403 10.0963 70.586 10.406 70.769 10.7439C70.9661 11.0818 71.1351 11.3986 71.2759 11.6942C71.4307 11.9899 71.5082 12.1659 71.5082 12.2222C71.5082 12.5882 71.4871 12.9543 71.4448 13.3203C71.4026 13.6723 71.3815 14.0313 71.3815 14.3973C71.3815 14.693 71.3322 14.9816 71.2336 15.2632C71.1351 15.5307 71.0858 15.8052 71.0858 16.0868C71.0858 16.2839 71.0929 16.5303 71.1069 16.8259C71.121 17.1075 71.1421 17.4102 71.1703 17.734C71.1984 18.0437 71.2266 18.3464 71.2548 18.6421C71.297 18.9377 71.3392 19.1771 71.3815 19.3601C71.3955 19.4305 71.4237 19.515 71.4659 19.6135C71.5082 19.698 71.5504 19.7895 71.5927 19.8881C71.649 19.9866 71.6982 20.0781 71.7405 20.1626C71.7827 20.2471 71.8038 20.3104 71.8038 20.3527ZM96.5966 18.5787C96.5402 18.6491 96.505 18.7688 96.491 18.9377C96.491 19.1067 96.491 19.2897 96.491 19.4868C96.505 19.6839 96.5191 19.874 96.5332 20.057C96.5473 20.24 96.5543 20.3808 96.5543 20.4794C96.5543 20.6342 96.5473 20.7891 96.5332 20.944C96.5332 21.0848 96.5121 21.2326 96.4698 21.3875L96.1953 21.7887C96.1672 21.8732 96.1601 21.9576 96.1742 22.0421C96.1883 22.1125 96.1953 22.1829 96.1953 22.2533V22.3589L95.8997 22.5278C95.787 22.7672 95.6885 23.0206 95.604 23.2881C95.5195 23.5556 95.421 23.8231 95.3083 24.0906C95.2098 24.344 95.0831 24.5904 94.9282 24.8297C94.7874 25.055 94.6044 25.2521 94.3792 25.421C94.3088 25.4633 94.2384 25.4844 94.168 25.4844C94.0976 25.4844 94.0272 25.5196 93.9568 25.59C93.7174 25.773 93.5063 25.9701 93.3232 26.1813C93.1402 26.3784 92.8868 26.498 92.563 26.5403C92.4504 26.7092 92.2462 26.9486 91.9506 27.2583C91.669 27.554 91.3593 27.8637 91.0214 28.1875C90.6976 28.5113 90.3808 28.814 90.071 29.0956C89.7613 29.3631 89.529 29.5391 89.3741 29.6235C89.2756 29.6799 89.17 29.715 89.0574 29.7291C88.9447 29.7291 88.8321 29.7362 88.7195 29.7502C88.6069 29.7502 88.4942 29.7643 88.3816 29.7925C88.283 29.8066 88.1915 29.8488 88.1071 29.9192C87.8959 30.0881 87.6565 30.243 87.389 30.3838C87.1356 30.5105 86.8611 30.5879 86.5654 30.6161C86.4246 30.7991 86.2487 30.9399 86.0375 31.0385C85.8404 31.137 85.6292 31.2285 85.4039 31.313C85.1787 31.3975 84.9604 31.489 84.7493 31.5875C84.5381 31.6861 84.348 31.8198 84.1791 31.9888C83.8975 32.0732 83.6018 32.1155 83.2921 32.1155C82.9824 32.1155 82.6726 32.1648 82.3629 32.2633C82.2362 32.7561 82.1517 33.2488 82.1095 33.7416C82.0673 34.2203 82.0461 34.706 82.0461 35.1987C82.0461 35.6915 82.0532 36.1842 82.0673 36.677C82.0954 37.1698 82.1095 37.6555 82.1095 38.1342V38.5143C81.9546 38.6973 81.8068 38.8733 81.666 39.0422C81.5252 39.2253 81.3774 39.3801 81.2225 39.5068C81.0677 39.6476 80.8846 39.7532 80.6735 39.8236C80.4764 39.9081 80.2441 39.9503 79.9766 39.9503C79.6105 39.9503 79.2585 39.8799 78.9207 39.7391C78.5968 39.6124 78.259 39.4928 77.907 39.3801C77.7944 39.2534 77.7169 39.0774 77.6747 38.8522C77.6465 38.6128 77.5972 38.4157 77.5269 38.2609C77.2875 38.1482 77.1326 38.0567 77.0623 37.9863C76.9919 37.9159 76.9567 37.7611 76.9567 37.5217C76.9567 37.395 76.9074 37.2824 76.8088 37.1838C76.7103 37.0853 76.661 36.9234 76.661 36.6981C76.661 36.3321 76.7103 35.9449 76.8088 35.5366C76.9215 35.1283 77.013 34.7412 77.0834 34.3751C77.1256 34.1076 77.1326 33.8683 77.1045 33.6571C77.0904 33.4459 77.0834 33.2066 77.0834 32.9391C77.0834 32.7701 77.1256 32.6012 77.2101 32.4323C77.1819 31.8832 77.1678 31.3341 77.1678 30.785C77.1819 30.2219 77.1819 29.6658 77.1678 29.1167C77.1538 28.5676 77.1186 28.0256 77.0623 27.4906C77.02 26.9415 76.9285 26.3925 76.7877 25.8434C76.8159 25.7026 76.8581 25.5759 76.9144 25.4633C76.9848 25.3365 77.0482 25.2169 77.1045 25.1042C77.1749 24.9775 77.2312 24.8508 77.2734 24.7241C77.3157 24.5974 77.3368 24.4566 77.3368 24.3018C77.3368 23.9498 77.2734 23.626 77.1467 23.3303C77.02 23.0206 76.9567 22.6968 76.9567 22.3589C76.9567 22.0773 76.9778 21.845 77.02 21.662C77.0763 21.479 77.1397 21.3171 77.2101 21.1763C77.2805 21.0355 77.3438 20.9088 77.4001 20.7961C77.4565 20.6835 77.4987 20.5498 77.5269 20.3949C77.4846 20.3245 77.4424 20.2611 77.4001 20.2048C77.3579 20.1485 77.3368 20.0852 77.3368 20.0148C77.3368 19.9444 77.3579 19.8881 77.4001 19.8458C77.4424 19.8036 77.4846 19.7614 77.5269 19.7191C77.4987 19.5361 77.4424 19.3742 77.3579 19.2334C77.2875 19.0785 77.2382 18.9237 77.2101 18.7688C77.1256 18.262 77.0341 17.7199 76.9355 17.1427C76.837 16.5514 76.7877 16.0094 76.7877 15.5166C76.7877 15.0802 76.83 14.6508 76.9144 14.2284C76.9989 13.806 77.0411 13.3696 77.0411 12.9191C77.0411 12.4826 76.9567 12.0532 76.7877 11.6309C76.9567 11.4619 77.0693 11.2648 77.1256 11.0396C77.196 10.8002 77.2805 10.5538 77.379 10.3004C77.4776 10.047 77.6184 9.78654 77.8014 9.51904C77.9985 9.23747 78.3223 8.95589 78.7728 8.67432C78.984 8.54761 79.2233 8.39978 79.4908 8.23083C79.7583 8.04781 80.0258 7.9211 80.2933 7.85071C80.5749 7.76624 80.8565 7.70992 81.1381 7.68176C81.4337 7.63953 81.7294 7.61137 82.025 7.59729C82.3207 7.56913 82.6163 7.54097 82.912 7.51282C83.2076 7.47058 83.5033 7.40019 83.799 7.30164C84.0946 7.18901 84.3832 7.06934 84.6648 6.94263C84.9464 6.80184 85.2631 6.73145 85.6151 6.73145C85.8263 6.73145 86.0304 6.76664 86.2275 6.83704C86.4387 6.89335 86.6429 6.96375 86.84 7.04822C87.0371 7.11861 87.2271 7.18901 87.4102 7.2594C87.6073 7.31571 87.8114 7.34387 88.0226 7.34387C88.2197 7.34387 88.4168 7.32275 88.6139 7.28052C88.811 7.23828 89.0081 7.20308 89.2052 7.17493C89.6135 7.37203 90.0077 7.58321 90.3878 7.80847C90.782 8.01965 91.1762 8.2238 91.5704 8.4209C91.6549 8.46313 91.7464 8.49129 91.845 8.50537C91.9576 8.50537 92.0562 8.51945 92.1406 8.54761C92.6193 8.74471 92.9994 9.01221 93.281 9.3501C93.5767 9.67391 93.9005 10.0118 94.2524 10.3638C94.3088 10.4482 94.3651 10.5609 94.4214 10.7017C94.4918 10.8424 94.5481 10.9973 94.5903 11.1663C94.6466 11.3352 94.703 11.5042 94.7593 11.6731C94.8156 11.828 94.8789 11.9547 94.9493 12.0532C94.9916 12.1377 95.0549 12.201 95.1394 12.2433C95.2239 12.2855 95.2872 12.3559 95.3295 12.4545C95.3999 12.5389 95.428 12.6305 95.4139 12.729C95.4139 12.8276 95.4491 12.9191 95.5195 13.0035C95.5899 13.1584 95.6885 13.3062 95.8152 13.447C95.956 13.5737 96.0827 13.7145 96.1953 13.8694C96.1953 14.6578 96.2516 15.4462 96.3643 16.2346C96.4769 17.023 96.5543 17.8044 96.5966 18.5787ZM91.4437 16.7626C91.4437 16.5092 91.4085 16.2698 91.3381 16.0446C91.2818 15.8052 91.2114 15.5729 91.127 15.3477C91.0566 15.1083 90.9932 14.869 90.9369 14.6296C90.8806 14.3762 90.8595 14.1228 90.8735 13.8694C90.7046 13.7004 90.5004 13.5597 90.2611 13.447C90.0358 13.3344 89.8247 13.1866 89.6276 13.0035C89.5009 12.736 89.3108 12.553 89.0574 12.4545C88.818 12.3418 88.5505 12.2785 88.2549 12.2644C87.9592 12.2362 87.6565 12.2362 87.3468 12.2644C87.0511 12.2926 86.7766 12.3066 86.5232 12.3066C86.1994 12.3066 85.8685 12.2644 85.5306 12.1799C85.2068 12.0955 84.883 12.0532 84.5592 12.0532C83.9961 12.0532 83.4611 12.2081 82.9542 12.5178C82.4474 12.8135 82.0743 13.2077 81.835 13.7004C81.835 13.8694 81.842 14.0383 81.8561 14.2073C81.8702 14.3762 81.8772 14.5381 81.8772 14.693C81.8772 14.8901 81.8561 15.0872 81.8138 15.2843C81.7857 15.4673 81.7364 15.6433 81.666 15.8123C81.7786 16.0798 81.8631 16.3543 81.9194 16.6359C81.9898 16.9034 82.025 17.1779 82.025 17.4595C82.025 17.7551 81.9898 18.0578 81.9194 18.3676C81.8631 18.6773 81.7927 18.987 81.7083 19.2968C81.6379 19.5924 81.5675 19.881 81.4971 20.1626C81.4408 20.4442 81.4126 20.7117 81.4126 20.9651C81.4126 21.2748 81.4689 21.5775 81.5815 21.8732C81.7083 22.1688 81.7927 22.4715 81.835 22.7812C81.8772 23.2599 81.8772 23.7456 81.835 24.2384C81.8068 24.7171 81.7927 25.1958 81.7927 25.6744C81.7927 25.9842 81.8068 26.2798 81.835 26.5614C81.8631 26.843 81.9124 27.1105 81.9828 27.3639C82.3348 27.378 82.6586 27.3498 82.9542 27.2794C83.264 27.1949 83.5596 27.0964 83.8412 26.9838C84.1368 26.8571 84.4255 26.7233 84.707 26.5825C84.9886 26.4277 85.2913 26.2728 85.6151 26.1179C85.8122 26.0334 86.0164 25.956 86.2275 25.8856C86.4528 25.8011 86.664 25.7026 86.8611 25.59C86.9737 25.5196 87.1427 25.3788 87.3679 25.1676C87.6073 24.9564 87.8466 24.7241 88.0859 24.4707C88.3394 24.2173 88.5717 23.9779 88.7828 23.7527C88.994 23.5133 89.1348 23.3303 89.2052 23.2036C89.2474 23.1332 89.2686 23.0628 89.2686 22.9924C89.2686 22.922 89.3038 22.8516 89.3741 22.7812C89.4164 22.739 89.4797 22.7179 89.5642 22.7179C89.6487 22.7179 89.712 22.6968 89.7543 22.6545C89.7965 22.6123 89.8669 22.5349 89.9655 22.4222C90.0781 22.2955 90.1907 22.1688 90.3033 22.0421C90.416 21.9013 90.5145 21.7676 90.599 21.6409C90.6835 21.5142 90.7327 21.4297 90.7468 21.3875C90.8172 21.1903 90.8313 20.9862 90.7891 20.775C90.7609 20.5498 90.7468 20.3245 90.7468 20.0992C90.7468 19.8881 90.7679 19.705 90.8102 19.5502C90.8524 19.3812 90.8947 19.2052 90.9369 19.0222C90.9932 18.8392 91.0425 18.6421 91.0847 18.4309C91.127 18.2197 91.1481 17.9663 91.1481 17.6707C91.1481 17.4595 91.1973 17.2905 91.2959 17.1638C91.3944 17.0371 91.4437 16.9034 91.4437 16.7626ZM120.228 37.7963C120.228 38.0497 120.193 38.2749 120.122 38.472C120.052 38.6551 119.967 38.824 119.869 38.9789C119.77 39.1337 119.658 39.2886 119.531 39.4435C119.418 39.5983 119.313 39.7814 119.214 39.9926L118.918 39.9503C118.637 39.9503 118.355 39.9714 118.074 40.0137C117.792 40.0559 117.511 40.077 117.229 40.077C116.976 40.077 116.736 40.0348 116.511 39.9503C116.3 39.8658 116.138 39.6899 116.025 39.4224C115.828 39.3097 115.631 39.2253 115.434 39.1689C115.237 39.1267 115.061 39.0282 114.906 38.8733V38.6621C114.906 38.465 114.843 38.289 114.716 38.1342C114.589 37.9793 114.505 37.8033 114.463 37.6062C114.378 37.2261 114.343 36.8319 114.357 36.4236C114.371 36.0012 114.378 35.5929 114.378 35.1987C114.378 34.8468 114.343 34.5018 114.272 34.1639C114.202 33.826 114.125 33.4952 114.04 33.1714C113.956 32.8335 113.878 32.5026 113.808 32.1788C113.752 31.8409 113.737 31.5031 113.766 31.1652C113.16 31.0948 112.562 31.0385 111.971 30.9962C111.393 30.9399 110.795 30.9117 110.176 30.9117C109.655 30.9117 109.127 30.9399 108.592 30.9962C108.071 31.0385 107.564 31.1581 107.071 31.3552C106.804 31.2004 106.515 31.0877 106.205 31.0173C105.91 30.9469 105.607 30.9117 105.297 30.9117C104.973 30.9117 104.685 30.954 104.431 31.0385C104.319 31.32 104.262 31.6016 104.262 31.8832C104.262 32.1648 104.22 32.4463 104.136 32.7279C104.108 32.8546 104.058 32.9461 103.988 33.0024C103.932 33.0447 103.889 33.101 103.861 33.1714C103.833 33.2418 103.826 33.3192 103.84 33.4037C103.854 33.4741 103.861 33.5515 103.861 33.636C103.861 33.7205 103.798 33.8542 103.671 34.0372C103.559 34.2203 103.481 34.3892 103.439 34.5441C103.368 34.9101 103.326 35.3043 103.312 35.7267C103.312 36.135 103.312 36.5362 103.312 36.9304C103.312 37.0149 103.34 37.0923 103.397 37.1627C103.453 37.219 103.481 37.2824 103.481 37.3528C103.481 37.4232 103.375 37.6132 103.164 37.923C102.953 38.2186 102.714 38.5424 102.446 38.8944C102.193 39.2323 101.954 39.535 101.728 39.8025C101.503 40.0841 101.383 40.2319 101.369 40.246C101.271 40.2741 101.179 40.2882 101.095 40.2882C101.01 40.2882 100.926 40.2882 100.841 40.2882C100.349 40.2882 99.8699 40.1685 99.4053 39.9292C98.9407 39.7039 98.5253 39.4364 98.1593 39.1267V38.8311C98.1593 38.465 98.1311 38.099 98.0748 37.7329C98.0185 37.3528 97.9481 36.9797 97.8636 36.6136C98.0608 36.3602 98.1875 36.0998 98.2438 35.8323C98.3001 35.5648 98.3142 35.2832 98.286 34.9875C98.4127 34.8468 98.5183 34.7341 98.6028 34.6497C98.7013 34.5652 98.7788 34.4807 98.8351 34.3962C98.8914 34.3118 98.9266 34.2132 98.9407 34.1006C98.9688 33.988 98.9829 33.8331 98.9829 33.636V33.5515L99.2786 33.2981C99.3067 33.1432 99.3067 33.0024 99.2786 32.8757C99.2504 32.7349 99.2363 32.5871 99.2363 32.4323C99.2363 32.3196 99.2504 32.2281 99.2786 32.1577L99.5531 31.9043C99.5813 31.8198 99.5883 31.7424 99.5742 31.672C99.5601 31.5875 99.5531 31.5101 99.5531 31.4397C99.5531 31.3693 99.5742 31.313 99.6165 31.2708C99.6587 31.2144 99.708 31.1581 99.7643 31.1018C99.8206 31.0455 99.8699 30.9892 99.9121 30.9329C99.9543 30.8765 99.9755 30.8132 99.9755 30.7428V30.6583C99.3982 30.5739 98.8351 30.5739 98.286 30.6583C98.103 30.5316 97.9129 30.3979 97.7158 30.2571C97.5328 30.1163 97.3639 29.9685 97.209 29.8136C97.0541 29.6587 96.9274 29.4827 96.8289 29.2856C96.7303 29.0885 96.681 28.8633 96.681 28.6099C96.681 28.1453 96.7725 27.7933 96.9556 27.554C97.1386 27.3146 97.3568 27.1175 97.6102 26.9626C97.8777 26.7937 98.1593 26.6388 98.455 26.498C98.7647 26.3573 99.0392 26.1531 99.2786 25.8856H100.377C100.63 25.6322 100.848 25.3577 101.031 25.062C101.228 24.7523 101.383 24.4214 101.496 24.0695C101.538 23.9427 101.559 23.809 101.559 23.6682C101.559 23.5274 101.58 23.3937 101.623 23.267C101.749 22.9854 101.918 22.732 102.13 22.5067C102.341 22.2674 102.503 21.9999 102.615 21.7042C102.686 21.479 102.707 21.2467 102.679 21.0073C102.65 20.768 102.672 20.5357 102.742 20.3104C102.869 19.9303 103.009 19.5924 103.164 19.2968C103.319 19.0011 103.467 18.7054 103.608 18.4098C103.763 18.1001 103.889 17.7551 103.988 17.375C104.086 16.9949 104.136 16.5303 104.136 15.9812C104.136 15.8967 104.115 15.8263 104.072 15.77C104.03 15.7137 104.009 15.6433 104.009 15.5588C104.009 15.4744 104.065 15.3477 104.178 15.1787C104.305 15.0098 104.389 14.8619 104.431 14.7352C104.474 14.5804 104.474 14.4325 104.431 14.2917C104.403 14.1369 104.389 13.982 104.389 13.8271C104.389 13.7286 104.467 13.5104 104.621 13.1725C104.776 12.8205 104.959 12.4545 105.171 12.0743C105.382 11.6801 105.6 11.3141 105.825 10.9762C106.05 10.6242 106.233 10.3919 106.374 10.2793C106.388 9.96956 106.445 9.70207 106.543 9.47681C106.642 9.23747 106.754 9.01221 106.881 8.80103C107.008 8.58984 107.142 8.37866 107.282 8.16748C107.423 7.9563 107.543 7.724 107.641 7.47058C107.838 7.47058 107.979 7.38611 108.064 7.21716C108.092 7.18901 108.134 7.17493 108.19 7.17493C108.416 7.17493 108.669 7.19604 108.951 7.23828C109.232 7.28052 109.556 7.30164 109.922 7.30164C110.246 7.30164 110.556 7.37907 110.851 7.53394C111.161 7.67472 111.443 7.84367 111.696 8.04077C111.935 8.2238 112.161 8.53353 112.372 8.96997C112.597 9.40641 112.808 9.91325 113.005 10.4905C113.202 11.0536 113.385 11.659 113.554 12.3066C113.737 12.9543 113.906 13.5878 114.061 14.2073C114.216 14.8127 114.364 15.3758 114.505 15.8967C114.646 16.4036 114.779 16.8118 114.906 17.1216C114.976 17.3187 115.068 17.5017 115.181 17.6707C115.293 17.8255 115.385 18.0156 115.455 18.2408C115.497 18.4379 115.511 18.6421 115.497 18.8533C115.483 19.0645 115.511 19.2756 115.582 19.4868C115.638 19.6698 115.708 19.8317 115.793 19.9725C115.877 20.1133 115.955 20.2682 116.025 20.4371C116.138 20.8736 116.208 21.3241 116.236 21.7887C116.265 22.2392 116.37 22.6686 116.553 23.0769C116.919 23.9076 117.215 24.7523 117.44 25.6111C117.68 26.4699 117.799 27.3428 117.799 28.2297C117.799 28.4268 117.856 28.631 117.968 28.8422C117.968 28.9548 118.003 29.0745 118.074 29.2012C118.144 29.3279 118.222 29.4616 118.306 29.6024C118.405 29.7291 118.496 29.8558 118.581 29.9825C118.679 30.1093 118.75 30.2289 118.792 30.3416C118.82 30.426 118.876 30.6583 118.961 31.0385C119.045 31.4045 119.137 31.848 119.235 32.3689C119.348 32.8898 119.46 33.453 119.573 34.0583C119.686 34.6497 119.791 35.2128 119.89 35.7478C119.988 36.2687 120.066 36.7192 120.122 37.0994C120.193 37.4795 120.228 37.7118 120.228 37.7963ZM112.52 26.3291C112.506 26.0475 112.456 25.773 112.372 25.5055C112.287 25.238 112.189 24.9775 112.076 24.7241C111.978 24.4566 111.872 24.1891 111.759 23.9216C111.661 23.6401 111.583 23.3585 111.527 23.0769C111.485 22.7812 111.471 22.4645 111.485 22.1266C111.513 21.7887 111.485 21.4578 111.4 21.134C111.358 20.9651 111.309 20.8454 111.253 20.775C111.21 20.7046 111.168 20.6413 111.126 20.585C111.098 20.5146 111.07 20.4301 111.041 20.3315C111.013 20.2189 110.999 20.0429 110.999 19.8036C110.999 19.6769 110.964 19.5572 110.894 19.4446C110.837 19.3319 110.774 19.2193 110.703 19.1067C110.633 18.9941 110.563 18.8603 110.492 18.7054C110.436 18.5506 110.408 18.3676 110.408 18.1564C110.408 18.0297 110.429 17.903 110.471 17.7762C110.513 17.6355 110.549 17.5017 110.577 17.375C110.309 17.1357 110.084 16.8682 109.901 16.5725C109.732 16.2769 109.535 15.9953 109.31 15.7278C109.211 15.7841 109.148 15.8756 109.12 16.0023C109.091 16.129 109.077 16.2698 109.077 16.4247C109.077 16.5655 109.077 16.7133 109.077 16.8682C109.077 17.023 109.056 17.1497 109.014 17.2483C108.972 17.375 108.887 17.4736 108.761 17.5439C108.648 17.6003 108.549 17.6847 108.465 17.7974C108.395 17.91 108.338 18.0367 108.296 18.1775C108.268 18.3183 108.19 18.4239 108.064 18.4943V19.7614C107.74 20.1415 107.472 20.585 107.261 21.0918C107.064 21.5986 106.895 22.1266 106.754 22.6757C106.628 23.2247 106.522 23.7808 106.438 24.344C106.367 24.8931 106.304 25.4069 106.248 25.8856C106.29 25.9138 106.339 25.9349 106.395 25.949C106.452 25.949 106.501 25.949 106.543 25.949C106.783 25.949 107.015 25.9208 107.24 25.8645C107.465 25.7941 107.698 25.7589 107.937 25.7589C108.542 25.7589 109.134 25.8011 109.711 25.8856C109.866 25.9138 110 25.9701 110.112 26.0546C110.239 26.125 110.38 26.1602 110.535 26.1602C110.605 26.1602 110.661 26.139 110.703 26.0968C110.76 26.0546 110.844 26.0334 110.957 26.0334C111.182 26.0334 111.393 26.0968 111.59 26.2235C111.788 26.3502 111.999 26.4136 112.224 26.4136C112.308 26.4136 112.407 26.3854 112.52 26.3291Z" fill="white"/>
<rect x="2.5" y="9.5" width="31" height="30" rx="7.5" stroke="#7F96FF" stroke-opacity="0.85" stroke-width="5"/>
<path d="M17 35L7 25" stroke="#7F96FF" stroke-width="4"/>
<path d="M15 34L31 20" stroke="#7F96FF" stroke-width="4"/>
</svg>
